<?xml version="1.0" encoding="UTF-8"?>
<svg id="Layer_1" data-name="Layer 1" xmlns="http://www.w3.org/2000/svg" viewBox="0 0 500 500">
  <defs>
    <style>
      .cls-1 {
        fill: #fff;
      }
    </style>
  </defs>
  <path class="cls-1" d="M219.8,173.68c-8.25-6.72-20.38-5.48-27.1,2.76l-63.62,78.07-.04-30.75c-5.37,3.87-11.95,6.14-19.06,6.14s-14.03-2.39-19.47-6.44l.14,84.35c0,4.72,1.72,9.04,4.56,12.38,0,0,.02.02.03.03.83,1.02,1.77,1.98,2.83,2.85,8.25,6.72,20.38,5.48,27.1-2.76l97.4-119.52c6.72-8.25,5.48-20.38-2.76-27.1Z"/>
  <path class="cls-1" d="M330.17,169.73c-24.25,0-45.97,10.93-60.52,28.12-.49.48-.96.99-1.4,1.54l-81.35,99.83c-6.72,8.25-5.48,20.38,2.76,27.1,8.25,6.72,20.38,5.48,27.1-2.76l38.79-47.59c11.04,30.53,40.32,52.42,74.62,52.42,43.74,0,79.32-35.58,79.32-79.32s-35.58-79.32-79.32-79.32ZM330.17,289.83c-22.49,0-40.78-18.29-40.78-40.78s18.29-40.78,40.78-40.78,40.78,18.29,40.78,40.78-18.29,40.78-40.78,40.78Z"/>
  <path class="cls-1" d="M109.98,208.59c9.36,0,17.18-6.62,19.02-15.44.27-1.29.41-2.62.41-3.99,0-6.45-3.14-12.17-7.98-15.7-3.21-2.35-7.17-3.73-11.45-3.73-10.73,0-19.43,8.7-19.43,19.43s8.7,19.43,19.43,19.43Z"/>
  <path class="cls-1" d="M329.93,230.28c-10.36,0-18.76,8.4-18.76,18.76s8.4,18.76,18.76,18.76,18.76-8.4,18.76-18.76-8.4-18.76-18.76-18.76Z"/>
</svg>