<?xml version="1.0" encoding="UTF-8"?>
<svg id="Layer_1" data-name="Layer 1" xmlns="http://www.w3.org/2000/svg" viewBox="0 0 1024 1024">
  <defs>
    <style>
      .cls-1 {
        fill: #2e2ffe;
      }

      .cls-2 {
        letter-spacing: .16em;
      }

      .cls-3 {
        letter-spacing: .15em;
      }

      .cls-4 {
        fill: #191919;
        font-family: Quicksand-Bold, Quicksand;
        font-size: 99.16px;
        font-weight: 700;
      }

      .cls-5 {
        letter-spacing: .13em;
      }
    </style>
  </defs>
  <text class="cls-4" transform="translate(216.28 673.4)"><tspan class="cls-2" x="0" y="0">IN</tspan><tspan class="cls-3" x="131.88" y="0">O</tspan><tspan class="cls-5" x="221.92" y="0">V</tspan><tspan class="cls-2" x="301.64" y="0">AXIO</tspan></text>
  <g>
    <g>
      <rect class="cls-1" x="391.43" y="425.17" width="214.07" height="49.29" rx="24.65" ry="24.65" transform="translate(-165.12 552.06) rotate(-50.82)"/>
      <path class="cls-1" d="M353.46,509.02c.03,13.58-10.96,24.61-24.53,24.62h-.14c-7.53.02-14.28-3.36-18.79-8.69-3.63-4.28-5.82-9.8-5.83-15.84l-.18-107.92c6.96,5.18,15.59,8.24,24.91,8.24s17.51-2.91,24.38-7.86l.05,39.35.12,68.09Z"/>
      <rect class="cls-1" x="268.26" y="408.41" width="246.56" height="49.29" rx="24.65" ry="24.65" transform="translate(-191.51 463) rotate(-50.82)"/>
      <path class="cls-1" d="M610.63,332.44c-31.02,0-58.83,13.99-77.44,35.98-.03.02-.04.04-.06.06-14.97,17.68-23.99,40.53-23.99,65.45,0,12.08,2.12,23.67,6.01,34.43,14.13,39.07,51.59,67.06,95.48,67.06,55.96,0,101.49-45.53,101.49-101.49s-45.53-101.49-101.49-101.49ZM610.63,486.11c-28.77,0-52.18-23.41-52.18-52.18s23.41-52.18,52.18-52.18,52.18,23.41,52.18,52.18-23.41,52.18-52.18,52.18Z"/>
      <path class="cls-1" d="M353.77,357.3c0,1.75-.18,3.46-.53,5.11-2.36,11.28-12.35,19.75-24.33,19.75-13.73,0-24.86-11.13-24.86-24.86s11.13-24.86,24.86-24.86c5.48,0,10.54,1.77,14.65,4.78,6.19,4.51,10.21,11.83,10.21,20.08Z"/>
    </g>
    <circle class="cls-1" cx="610.32" cy="433.91" r="24"/>
  </g>
</svg>