<?xml version="1.0" encoding="UTF-8"?>
<svg id="Layer_1" data-name="Layer 1" xmlns="http://www.w3.org/2000/svg" viewBox="0 0 1024 1024">
  <defs>
    <style>
      .cls-1 {
        fill: #2e2ffe;
      }

      .cls-2 {
        letter-spacing: .16em;
      }

      .cls-3 {
        letter-spacing: .16em;
      }

      .cls-4 {
        letter-spacing: .15em;
      }

      .cls-5 {
        fill: #1d1d1b;
        font-family: Quicksand-Bold, Quicksand;
        font-size: 72.89px;
        font-weight: 700;
      }

      .cls-6 {
        letter-spacing: .13em;
      }
    </style>
  </defs>
  <text class="cls-5" transform="translate(399.62 535.5)"><tspan class="cls-2" x="0" y="0">IN</tspan><tspan class="cls-4" x="96.95" y="0">O</tspan><tspan class="cls-6" x="163.13" y="0">V</tspan><tspan class="cls-3" x="221.74" y="0">AXIO</tspan></text>
  <g>
    <g>
      <rect class="cls-1" x="225.43" y="507.25" width="101.88" height="23.46" rx="11.73" ry="11.73" transform="translate(-300.53 405.36) rotate(-50.82)"/>
      <path class="cls-1" d="M207.35,547.16c.01,6.46-5.22,11.71-11.67,11.72h-.06c-3.59,0-6.8-1.6-8.94-4.14-1.73-2.04-2.77-4.67-2.78-7.54l-.08-51.36c3.31,2.46,7.42,3.92,11.86,3.92s8.34-1.38,11.61-3.74l.02,18.73.06,32.41Z"/>
      <rect class="cls-1" x="166.8" y="499.28" width="117.35" height="23.46" rx="11.73" ry="11.73" transform="translate(-313.09 362.98) rotate(-50.82)"/>
      <path class="cls-1" d="M329.75,463.12c-14.77,0-28,6.66-36.86,17.12-.01,0-.02.02-.03.03-7.13,8.42-11.42,19.29-11.42,31.15,0,5.75,1.01,11.27,2.86,16.38,6.73,18.59,24.55,31.92,45.44,31.92,26.63,0,48.3-21.67,48.3-48.3s-21.67-48.3-48.3-48.3ZM329.75,536.26c-13.69,0-24.83-11.14-24.83-24.83s11.14-24.83,24.83-24.83,24.83,11.14,24.83,24.83-11.14,24.83-24.83,24.83Z"/>
      <path class="cls-1" d="M207.5,474.95c0,.83-.08,1.65-.25,2.43-1.12,5.37-5.88,9.4-11.58,9.4-6.54,0-11.83-5.3-11.83-11.83s5.3-11.83,11.83-11.83c2.61,0,5.02.84,6.97,2.27,2.95,2.15,4.86,5.63,4.86,9.56Z"/>
    </g>
    <circle class="cls-1" cx="329.61" cy="511.42" r="11.42"/>
  </g>
</svg>