<?xml version="1.0" encoding="UTF-8"?>
<svg id="Layer_1" data-name="Layer 1" xmlns="http://www.w3.org/2000/svg" viewBox="0 0 1024 1024">
  <defs>
    <style>
      .cls-1 {
        fill: #2e2ffe;
      }

      .cls-2 {
        fill: #fff;
      }
    </style>
  </defs>
  <g>
    <path class="cls-2" d="M234.23,671.67c-1.26,1.16-2.71,1.74-4.36,1.74-1.79,0-3.26-.58-4.41-1.74-1.16-1.16-1.74-2.59-1.74-4.31v-57.31c0-1.72.6-3.16,1.79-4.31,1.19-1.16,2.71-1.74,4.56-1.74,1.65,0,3.07.58,4.26,1.74,1.19,1.16,1.79,2.59,1.79,4.31v57.31c0,1.72-.63,3.16-1.88,4.31Z"/>
    <path class="cls-2" d="M323.38,605.58c.99,1.06,1.49,2.38,1.49,3.97v57.81c0,1.72-.58,3.16-1.74,4.31s-2.6,1.74-4.31,1.74c-.93,0-1.83-.15-2.73-.45-.89-.3-1.54-.71-1.93-1.24l-36.39-46.21v42.34c0,1.59-.51,2.91-1.54,3.97-1.03,1.06-2.36,1.59-4.02,1.59s-2.88-.53-3.87-1.59c-.99-1.06-1.49-2.38-1.49-3.97v-57.81c0-1.72.58-3.16,1.74-4.31s2.59-1.74,4.31-1.74c.99,0,1.97.2,2.93.59.96.4,1.67.93,2.13,1.59l36.09,46.01v-42.64c0-1.59.51-2.91,1.54-3.97,1.02-1.06,2.33-1.59,3.92-1.59s2.88.53,3.87,1.59Z"/>
    <path class="cls-2" d="M415.1,656.7c-2.91,5.45-6.93,9.77-12.05,12.94-5.12,3.17-10.89,4.76-17.3,4.76s-12.18-1.59-17.3-4.76c-5.12-3.17-9.12-7.49-12-12.94-2.88-5.45-4.31-11.45-4.31-18s1.44-12.54,4.31-18c2.88-5.45,6.87-9.77,12-12.94,5.12-3.17,10.89-4.76,17.3-4.76s12.18,1.59,17.3,4.76c5.12,3.17,9.14,7.49,12.05,12.94,2.91,5.45,4.36,11.45,4.36,18s-1.45,12.54-4.36,18ZM403.89,626.65c-1.79-3.6-4.26-6.46-7.44-8.58-3.17-2.11-6.74-3.17-10.71-3.17s-7.62,1.04-10.76,3.12c-3.14,2.08-5.59,4.94-7.34,8.58-1.75,3.64-2.63,7.67-2.63,12.1s.88,8.46,2.63,12.1c1.75,3.64,4.2,6.5,7.34,8.58,3.14,2.08,6.73,3.12,10.76,3.12s7.54-1.06,10.71-3.17c3.17-2.11,5.65-4.97,7.44-8.58,1.79-3.6,2.68-7.62,2.68-12.05s-.89-8.44-2.68-12.05Z"/>
    <path class="cls-2" d="M500.62,605.48c1.22,1.12,1.83,2.48,1.83,4.07,0,.86-.2,1.75-.59,2.68l-24.49,57.31c-.59,1.26-1.42,2.22-2.48,2.88-1.06.66-2.18.99-3.37.99-1.12-.07-2.17-.41-3.12-1.04-.96-.63-1.7-1.54-2.23-2.73l-24.49-57.51c-.33-.66-.5-1.49-.5-2.48,0-1.78.66-3.22,1.98-4.31,1.32-1.09,2.68-1.64,4.07-1.64,1.12,0,2.18.33,3.17.99.99.66,1.75,1.62,2.28,2.88l19.93,46.9,18.25-46.9c.53-1.19,1.29-2.11,2.28-2.78.99-.66,2.05-.99,3.17-.99,1.65,0,3.09.56,4.31,1.69Z"/>
    <path class="cls-2" d="M580.3,668.05c0,1.72-.56,3.12-1.69,4.21-1.12,1.09-2.41,1.64-3.87,1.64-1.19,0-2.27-.36-3.22-1.09-.96-.73-1.7-1.72-2.23-2.97l-5.16-12h-29.55l-5.16,12.1c-.46,1.26-1.17,2.23-2.13,2.93-.96.69-2,1.04-3.12,1.04-1.72,0-3.02-.46-3.92-1.39s-1.34-2.18-1.34-3.77c0-.6.1-1.22.3-1.88l24.69-59.3c.53-1.32,1.32-2.35,2.38-3.07,1.06-.73,2.25-1.02,3.57-.89,1.19,0,2.3.35,3.32,1.04,1.02.69,1.77,1.67,2.23,2.92l24.39,58.11c.33.86.5,1.65.5,2.38ZM539.44,646.43h19.83l-10.02-23.2-9.82,23.2Z"/>
    <path class="cls-2" d="M656.35,664.28c.79,1.06,1.19,2.28,1.19,3.67,0,1.72-.63,3.14-1.88,4.26-1.26,1.12-2.61,1.69-4.07,1.69-1.92,0-3.54-.86-4.86-2.58l-17.65-23.5-17.16,23.3c-1.32,1.85-2.97,2.78-4.96,2.78-1.45,0-2.71-.53-3.77-1.59-1.06-1.06-1.59-2.28-1.59-3.67s.5-2.81,1.49-4.07l19.14-25.88-19.14-25.38c-.86-1.06-1.29-2.25-1.29-3.57,0-1.65.63-3.07,1.88-4.26,1.25-1.19,2.64-1.79,4.16-1.79,1.92,0,3.54.86,4.86,2.58l17.45,23.2,17.06-22.71c.66-.92,1.42-1.64,2.28-2.13.86-.5,1.72-.74,2.58-.74,1.45,0,2.74.58,3.87,1.74,1.12,1.16,1.69,2.43,1.69,3.82,0,1.26-.43,2.45-1.29,3.57l-19.34,25.48,19.34,25.78Z"/>
    <path class="cls-2" d="M695.91,671.67c-1.26,1.16-2.71,1.74-4.36,1.74-1.79,0-3.26-.58-4.41-1.74-1.16-1.16-1.74-2.59-1.74-4.31v-57.31c0-1.72.6-3.16,1.79-4.31,1.19-1.16,2.71-1.74,4.56-1.74,1.65,0,3.07.58,4.26,1.74,1.19,1.16,1.79,2.59,1.79,4.31v57.31c0,1.72-.63,3.16-1.88,4.31Z"/>
    <path class="cls-2" d="M788.03,656.7c-2.91,5.45-6.93,9.77-12.05,12.94-5.12,3.17-10.89,4.76-17.3,4.76s-12.18-1.59-17.3-4.76c-5.12-3.17-9.12-7.49-12-12.94-2.88-5.45-4.31-11.45-4.31-18s1.44-12.54,4.31-18c2.88-5.45,6.87-9.77,12-12.94,5.12-3.17,10.89-4.76,17.3-4.76s12.18,1.59,17.3,4.76c5.12,3.17,9.14,7.49,12.05,12.94,2.91,5.45,4.36,11.45,4.36,18s-1.45,12.54-4.36,18ZM776.83,626.65c-1.79-3.6-4.26-6.46-7.44-8.58-3.17-2.11-6.74-3.17-10.71-3.17s-7.62,1.04-10.76,3.12c-3.14,2.08-5.59,4.94-7.34,8.58-1.75,3.64-2.63,7.67-2.63,12.1s.88,8.46,2.63,12.1c1.75,3.64,4.2,6.5,7.34,8.58,3.14,2.08,6.73,3.12,10.76,3.12s7.54-1.06,10.71-3.17c3.17-2.11,5.65-4.97,7.44-8.58,1.79-3.6,2.68-7.62,2.68-12.05s-.89-8.44-2.68-12.05Z"/>
  </g>
  <g>
    <path class="cls-1" d="M469.42,337.49h0c-10.55-8.6-26.08-7.02-34.68,3.54l-81.4,99.89-.05-39.35c-6.87,4.95-15.3,7.86-24.38,7.86s-17.95-3.06-24.91-8.24l.18,107.92c0,6.04,2.2,11.56,5.83,15.84,0,0,0,0,.01.01,1.06,1.32,2.28,2.55,3.64,3.66h0c10.55,8.6,26.08,7.02,34.68-3.54l124.62-152.92c8.6-10.55,7.02-26.08-3.54-34.68Z"/>
    <path class="cls-1" d="M610.63,332.44c-31.01,0-58.8,13.97-77.41,35.95-.63.62-1.24,1.29-1.81,1.99l-104.09,127.73c-8.6,10.55-7.02,26.08,3.54,34.68h0c10.55,8.6,26.08,7.02,34.68-3.54l49.63-60.9c14.13,39.07,51.59,67.06,95.48,67.06,55.96,0,101.49-45.53,101.49-101.49s-45.53-101.49-101.49-101.49ZM610.63,486.11c-28.77,0-52.18-23.41-52.18-52.18s23.41-52.18,52.18-52.18,52.18,23.41,52.18,52.18-23.41,52.18-52.18,52.18Z"/>
    <path class="cls-1" d="M328.91,382.16c11.98,0,21.98-8.47,24.33-19.75.35-1.65.53-3.36.53-5.11,0-8.26-4.02-15.57-10.21-20.08-4.11-3.01-9.17-4.78-14.65-4.78-13.73,0-24.86,11.13-24.86,24.86s11.13,24.86,24.86,24.86Z"/>
    <circle class="cls-1" cx="610.32" cy="433.91" r="24" transform="translate(-24.12 831.73) rotate(-67.5)"/>
  </g>
</svg>