<?xml version="1.0" encoding="UTF-8"?>
<svg id="Layer_1" data-name="Layer 1" xmlns="http://www.w3.org/2000/svg" viewBox="0 0 1280.6 555.56">
  <defs>
    <style>
      .cls-1 {
        fill: #2e2ffe;
      }

      .cls-2 {
        fill: #fff;
      }
    </style>
  </defs>
  <g>
    <path class="cls-2" d="M552.01,302.02c-.92.85-1.99,1.28-3.21,1.28-1.31,0-2.39-.42-3.24-1.28-.85-.85-1.28-1.91-1.28-3.17v-42.13c0-1.26.44-2.32,1.31-3.17.88-.85,1.99-1.28,3.35-1.28,1.21,0,2.26.43,3.13,1.28.88.85,1.31,1.91,1.31,3.17v42.13c0,1.26-.46,2.32-1.39,3.17Z"/>
    <path class="cls-2" d="M617.54,253.43c.73.78,1.09,1.75,1.09,2.92v42.5c0,1.26-.43,2.32-1.28,3.17s-1.91,1.28-3.17,1.28c-.68,0-1.35-.11-2-.33-.66-.22-1.13-.52-1.42-.91l-26.75-33.97v31.13c0,1.17-.38,2.14-1.13,2.92-.75.78-1.74,1.17-2.95,1.17s-2.11-.39-2.84-1.17c-.73-.78-1.09-1.75-1.09-2.92v-42.5c0-1.26.42-2.32,1.28-3.17.85-.85,1.91-1.28,3.17-1.28.73,0,1.45.15,2.15.44.7.29,1.23.68,1.57,1.17l26.53,33.82v-31.34c0-1.17.38-2.14,1.13-2.92.75-.78,1.71-1.17,2.88-1.17s2.11.39,2.84,1.17Z"/>
    <path class="cls-2" d="M684.97,291.01c-2.14,4.01-5.09,7.18-8.86,9.51-3.77,2.33-8.01,3.5-12.72,3.5s-8.96-1.17-12.72-3.5c-3.77-2.33-6.71-5.5-8.82-9.51-2.11-4.01-3.17-8.42-3.17-13.23s1.06-9.22,3.17-13.23c2.11-4.01,5.05-7.18,8.82-9.51,3.76-2.33,8-3.5,12.72-3.5s8.95,1.17,12.72,3.5c3.77,2.33,6.72,5.5,8.86,9.51,2.14,4.01,3.21,8.42,3.21,13.23s-1.07,9.22-3.21,13.23ZM676.73,268.92c-1.31-2.65-3.13-4.75-5.47-6.31-2.33-1.55-4.96-2.33-7.87-2.33s-5.6.76-7.91,2.3c-2.31,1.53-4.11,3.63-5.39,6.3-1.29,2.67-1.93,5.64-1.93,8.89s.64,6.22,1.93,8.89c1.29,2.67,3.09,4.78,5.39,6.31,2.31,1.53,4.94,2.3,7.91,2.3s5.54-.78,7.87-2.33c2.33-1.55,4.16-3.66,5.47-6.31,1.31-2.65,1.97-5.6,1.97-8.86s-.66-6.21-1.97-8.86Z"/>
    <path class="cls-2" d="M747.84,253.36c.9.83,1.35,1.82,1.35,2.99,0,.63-.15,1.29-.44,1.97l-18,42.13c-.44.92-1.05,1.63-1.82,2.11-.78.49-1.6.73-2.48.73-.83-.05-1.59-.3-2.3-.77-.71-.46-1.25-1.13-1.64-2l-18-42.28c-.24-.49-.37-1.09-.37-1.82,0-1.31.49-2.37,1.46-3.17.97-.8,1.97-1.2,2.99-1.2.83,0,1.6.24,2.33.73.73.49,1.29,1.19,1.68,2.11l14.65,34.48,13.41-34.48c.39-.88.95-1.55,1.68-2.04.73-.49,1.51-.73,2.33-.73,1.21,0,2.27.41,3.17,1.24Z"/>
    <path class="cls-2" d="M806.41,299.35c0,1.26-.41,2.3-1.24,3.1-.83.8-1.78,1.2-2.84,1.2-.87,0-1.67-.27-2.37-.8-.71-.53-1.25-1.26-1.64-2.19l-3.79-8.82h-21.72l-3.79,8.89c-.34.92-.86,1.64-1.57,2.15-.71.51-1.47.77-2.3.77-1.26,0-2.22-.34-2.88-1.02s-.98-1.6-.98-2.77c0-.44.07-.9.22-1.38l18.15-43.59c.39-.97.97-1.72,1.75-2.26.78-.53,1.65-.75,2.62-.66.88,0,1.69.26,2.44.77.75.51,1.3,1.23,1.64,2.15l17.93,42.72c.24.63.36,1.21.36,1.75ZM776.38,283.46h14.58l-7.36-17.06-7.22,17.06Z"/>
    <path class="cls-2" d="M862.32,296.58c.58.78.88,1.68.88,2.7,0,1.26-.46,2.31-1.39,3.13-.92.83-1.92,1.24-2.99,1.24-1.41,0-2.6-.63-3.57-1.9l-12.98-17.28-12.61,17.13c-.97,1.36-2.19,2.04-3.64,2.04-1.07,0-1.99-.39-2.77-1.17-.78-.78-1.17-1.68-1.17-2.7s.36-2.06,1.09-2.99l14.07-19.03-14.07-18.66c-.63-.78-.95-1.65-.95-2.62,0-1.21.46-2.26,1.38-3.13.92-.88,1.94-1.31,3.06-1.31,1.41,0,2.6.63,3.57,1.9l12.83,17.06,12.54-16.69c.49-.68,1.04-1.2,1.68-1.57.63-.36,1.26-.55,1.89-.55,1.07,0,2.02.43,2.84,1.28.83.85,1.24,1.79,1.24,2.81,0,.92-.32,1.8-.95,2.62l-14.21,18.73,14.21,18.95Z"/>
    <path class="cls-2" d="M891.4,302.02c-.92.85-1.99,1.28-3.21,1.28-1.31,0-2.39-.42-3.24-1.28-.85-.85-1.28-1.91-1.28-3.17v-42.13c0-1.26.44-2.32,1.31-3.17.88-.85,1.99-1.28,3.35-1.28,1.21,0,2.26.43,3.13,1.28.88.85,1.31,1.91,1.31,3.17v42.13c0,1.26-.46,2.32-1.39,3.17Z"/>
    <path class="cls-2" d="M959.12,291.01c-2.14,4.01-5.09,7.18-8.86,9.51-3.77,2.33-8.01,3.5-12.72,3.5s-8.96-1.17-12.72-3.5c-3.77-2.33-6.71-5.5-8.82-9.51-2.11-4.01-3.17-8.42-3.17-13.23s1.06-9.22,3.17-13.23c2.11-4.01,5.05-7.18,8.82-9.51,3.76-2.33,8-3.5,12.72-3.5s8.95,1.17,12.72,3.5c3.77,2.33,6.72,5.5,8.86,9.51,2.14,4.01,3.21,8.42,3.21,13.23s-1.07,9.22-3.21,13.23ZM950.88,268.92c-1.31-2.65-3.13-4.75-5.47-6.31-2.33-1.55-4.96-2.33-7.87-2.33s-5.6.76-7.91,2.3c-2.31,1.53-4.11,3.63-5.39,6.3-1.29,2.67-1.93,5.64-1.93,8.89s.64,6.22,1.93,8.89c1.29,2.67,3.09,4.78,5.39,6.31,2.31,1.53,4.94,2.3,7.91,2.3s5.54-.78,7.87-2.33c2.33-1.55,4.16-3.66,5.47-6.31,1.31-2.65,1.97-5.6,1.97-8.86s-.66-6.21-1.97-8.86Z"/>
  </g>
  <g>
    <path class="cls-1" d="M401.74,231.3h0c-5.02-4.09-12.41-3.34-16.5,1.68l-38.74,47.54-.02-18.73c-3.27,2.35-7.28,3.74-11.61,3.74s-8.54-1.46-11.86-3.92l.08,51.36c0,2.87,1.05,5.5,2.78,7.54,0,0,.01.01.02.02.5.62,1.08,1.21,1.72,1.73h0c5.02,4.09,12.41,3.34,16.5-1.68l59.31-72.78c4.09-5.02,3.34-12.41-1.68-16.5Z"/>
    <path class="cls-1" d="M468.95,228.9c-14.76,0-27.99,6.66-36.85,17.12-.3.29-.58.6-.85.94l-49.54,60.79c-4.09,5.02-3.34,12.41,1.68,16.5,5.02,4.09,12.41,3.34,16.5-1.68l23.62-28.98c6.73,18.59,24.55,31.92,45.44,31.92,26.63,0,48.3-21.67,48.3-48.3s-21.67-48.3-48.3-48.3ZM468.95,302.03c-13.69,0-24.83-11.14-24.83-24.83s11.14-24.83,24.83-24.83,24.83,11.14,24.83,24.83-11.14,24.83-24.83,24.83Z"/>
    <path class="cls-1" d="M334.86,252.56c5.7,0,10.46-4.03,11.58-9.4.17-.79.25-1.6.25-2.43,0-3.93-1.91-7.41-4.86-9.56-1.95-1.43-4.37-2.27-6.97-2.27-6.54,0-11.83,5.3-11.83,11.83s5.3,11.83,11.83,11.83Z"/>
    <path class="cls-1" d="M468.8,265.77c-6.31,0-11.42,5.11-11.42,11.42s5.11,11.42,11.42,11.42,11.42-5.11,11.42-11.42-5.11-11.42-11.42-11.42Z"/>
  </g>
</svg>